<?xml version="1.0" encoding="UTF-8"?>
<svg width="29px" height="24px" viewBox="0 0 29 24" version="1.1" xmlns="http://www.w3.org/2000/svg" xmlns:xlink="http://www.w3.org/1999/xlink">
    <!-- Generator: Sketch 60.1 (88133) - https://sketch.com -->
    <title>accouncement</title>
    <desc>Created with Sketch.</desc>
    <g id="go.read-desktop" stroke="none" stroke-width="1" fill="none" fill-rule="evenodd">
        <g id="home" transform="translate(-851.000000, -28.000000)" fill="#254BBB" fill-rule="nonzero">
            <g id="menu">
                <g id="categories" transform="translate(417.000000, 24.000000)">
                    <g id="categories-copy-3" transform="translate(434.000000, 4.000000)">
                        <g id="Group-5">
                            <g id="Group-3">
                                <g id="Group-4">
                                    <g id="iconmonstr-medal-16">
                                        <g id="accouncement">
                                            <path d="M3.186,15.9012 C2.184,16.9716 1.3356,17.2908 0,16.9332 L3.1764,22.4352 C3.4848,21.1224 4.1544,20.3856 5.5824,20.0532 L24,15.5748 L16.398,2.4084 L3.186,15.9012 L3.186,15.9012 Z M16.77,19.1496 L16.2096,21.6912 C16.0968,22.1448 15.7404,22.5 15.2868,22.6164 L11.7444,23.5452 C11.3064,23.6592 10.8408,23.5308 10.5228,23.2092 L8.634,21.1548 L10.56,20.6808 L11.3352,21.6048 C11.5464,21.8172 11.8536,21.9024 12.144,21.828 L14.0616,21.318 C14.364,21.2412 14.6004,21.0048 14.6748,20.7036 L14.8692,19.6164 L16.77,19.1496 Z M27.2328,5.6292 L24.012,7.5648 L23.1048,6.0504 L26.328,4.116 L27.2328,5.6292 Z M21.9576,4.236 L20.3556,3.4968 L21.966,0 L23.568,0.7404 L21.9576,4.236 Z M28.7004,11.6244 L24.858,11.4156 L24.9552,9.6528 L28.8,9.8628 L28.7004,11.6244 L28.7004,11.6244 Z" id="Shape"></path>
                                        </g>
                                    </g>
                                </g>
                            </g>
                        </g>
                    </g>
                </g>
            </g>
        </g>
    </g>
</svg>