<?xml version="1.0" encoding="UTF-8"?>
<svg width="27px" height="20px" viewBox="0 0 27 20" version="1.1" xmlns="http://www.w3.org/2000/svg" xmlns:xlink="http://www.w3.org/1999/xlink">
    <!-- Generator: Sketch 60.1 (88133) - https://sketch.com -->
    <title>blog</title>
    <desc>Created with Sketch.</desc>
    <g id="go.read-desktop" stroke="none" stroke-width="1" fill="none" fill-rule="evenodd">
        <g id="home" transform="translate(-731.000000, -30.000000)" fill="#254BBB" fill-rule="nonzero">
            <g id="menu">
                <g id="categories" transform="translate(417.000000, 24.000000)">
                    <g id="categories-copy-2" transform="translate(314.000000, 6.000000)">
                        <g id="Group-5">
                            <g id="Group-3">
                                <g id="Group-4">
                                    <g id="blog">
                                        <path d="M21.4244444,1.66038018 C20.89,0.597068893 20.0444444,-0.0706950415 18.9911111,0.00597003591 C17.8733333,0.0970792583 16.9433333,0.971505576 16.68,2.18148049 C16.6133333,2.48147427 16.8033333,2.77813479 17.1033333,2.8425779 C17.4044444,2.90590992 17.7,2.71813603 17.7655556,2.41925334 C17.95,1.57593749 18.56,1.1559462 19.0833333,1.11372485 C19.6588889,1.05705936 20.0944444,1.43260713 20.3933333,2.0692606 C21.2766667,3.9514438 24.0811111,9.73799051 25.1255556,12.2757157 C25.1255556,12.2757157 23.7788889,8.88800813 19.9966667,8.88800813 C17.3677778,8.88800813 15.1766667,10.7190813 14.6011111,13.1734748 C14.2011111,12.8834809 13.7355556,12.7368172 13.3022222,12.7368172 C12.8788889,12.7368172 12.44,12.8712589 12.06,13.1368089 C11.4666667,10.702415 9.28777778,8.88911922 6.67222222,8.88911922 C2.89,8.88911922 1.54333333,12.2768268 1.54333333,12.2768268 C2.58666667,9.7391016 5.39222222,3.95255489 6.27555556,2.07037168 C6.57444444,1.43371822 7.01,1.05817045 7.58555556,1.11483594 C8.10888889,1.15705728 8.71888889,1.57815967 8.90333333,2.42036443 C8.96666667,2.71924712 9.26222222,2.90702101 9.56333333,2.84368899 C9.86333333,2.77813479 10.0522222,2.48258536 9.98666667,2.18259158 C9.72333333,0.972616664 8.79333333,0.0981903464 7.67555556,0.00708112399 C6.62222222,-0.0695839534 5.77666667,0.597068893 5.24222222,1.66038018 C4.14333333,3.84255717 0,12.3101594 0,13.3101387 C0,13.8801269 0.444444444,14.4445596 1.11666667,14.4445596 C1.11666667,17.5133849 3.60333333,20 6.67222222,20 C8.94666667,20 10.8855556,18.6278062 11.7388889,16.6678469 C12.31,15.3534297 12.0844444,13.8490164 13.3,13.8490164 C14.5488889,13.8490164 14.3755556,15.3934288 14.9322222,16.6711801 C15.7844444,18.6289173 17.7211111,20 19.9944444,20 C23.0633333,20 25.55,17.5133849 25.55,14.4445596 C26.2222222,14.4445596 26.6666667,13.8801269 26.6666667,13.3101387 C26.6666667,12.3101594 22.5233333,3.84255717 21.4244444,1.66038018 L21.4244444,1.66038018 Z M2.25222222,14.4444444 L2.22222222,14.1020056 C2.22222222,11.8356173 3.90888889,10 5.99,10 C6.22,10 6.44555556,10.0302508 6.66666667,10.0738119 C4.69777778,10.8022507 3.09777778,12.3970717 2.25222222,14.4444444 Z M15.5866667,14.4444444 L15.5555556,14.1020056 C15.5555556,11.8356173 17.2433333,10 19.3233333,10 C19.5544444,10 19.78,10.0302508 20,10.0738119 C18.0311111,10.8022507 16.4333333,12.3970717 15.5866667,14.4444444 L15.5866667,14.4444444 Z" id="Shape"></path>
                                    </g>
                                </g>
                            </g>
                        </g>
                    </g>
                </g>
            </g>
        </g>
    </g>
</svg>