<?xml version="1.0" encoding="UTF-8"?>
<svg width="38px" height="40px" viewBox="0 0 38 40" version="1.1" xmlns="http://www.w3.org/2000/svg" xmlns:xlink="http://www.w3.org/1999/xlink">
    <!-- Generator: Sketch 60.1 (88133) - https://sketch.com -->
    <title>iconmonstr-google-play-1</title>
    <desc>Created with Sketch.</desc>
    <g id="go.read-desktop" stroke="none" stroke-width="1" fill="none" fill-rule="evenodd">
        <g id="home" transform="translate(-1298.000000, -16.000000)" fill="#000000">
            <g id="menu">
                <g id="iconmonstr-google-play-1" transform="translate(1298.000000, 16.000000)">
                    <path d="M0.986272727,39.4397336 L19.1761818,21.9383068 L25.5878182,28.1065556 L3.96409091,39.6747304 C3.14190909,40.1147244 2.13490909,40.1080578 1.31790909,39.6563973 L0.986272727,39.4397336 Z M17.3418182,20.173331 L0,36.8581023 L0,3.48855958 L17.3418182,20.173331 Z M28.1787273,13.2784254 L36.651,17.81003 C37.4835455,18.2566906 38,19.0933458 38,20 C38,20.9066542 37.4835455,21.7433094 36.651,22.18997 L27.9472727,26.8449062 L21.0122727,20.173331 L28.1787273,13.2784254 Z M0.794545455,0.72193082 C0.95,0.576932807 1.12445455,0.450267876 1.31790909,0.343602671 C2.13490909,-0.108057807 3.14190909,-0.114724383 3.96409091,0.325269588 L25.8192727,12.0167761 L19.1761818,18.4083551 L0.794545455,0.72193082 Z" id="Shape"></path>
                </g>
            </g>
        </g>
    </g>
</svg>